<?xml version="1.0" standalone="no"?>
<!DOCTYPE svg PUBLIC "-//W3C//DTD SVG 20010904//EN"
 "http://www.w3.org/TR/2001/REC-SVG-20010904/DTD/svg10.dtd">
<svg version="1.0" xmlns="http://www.w3.org/2000/svg"
 width="2309.000000pt" height="2309.000000pt" viewBox="0 0 2309.000000 2309.000000"
 preserveAspectRatio="xMidYMid meet">
<metadata>
Created by potrace 1.11, written by Peter Selinger 2001-2013
</metadata>
<g transform="translate(0.000000,2309.000000) scale(0.100000,-0.100000)"
fill="#000000" stroke="none">
<path d="M11237 22914 c-1 -1 -83 -5 -182 -9 -99 -3 -198 -8 -220 -10 -22 -1
-89 -6 -150 -9 -60 -4 -126 -9 -145 -11 -39 -4 -127 -13 -210 -21 -63 -5 -148
-15 -170 -19 -8 -1 -46 -6 -83 -10 -37 -3 -76 -8 -86 -10 -10 -2 -42 -6 -71
-10 -29 -4 -60 -8 -69 -10 -16 -3 -108 -16 -146 -20 -18 -3 -217 -38 -285 -51
-14 -2 -40 -7 -59 -10 -18 -3 -43 -8 -55 -10 -11 -2 -32 -6 -46 -9 -14 -3 -34
-7 -45 -9 -11 -2 -78 -16 -150 -31 -198 -41 -688 -167 -895 -230 -366 -112
-685 -223 -985 -345 -71 -29 -143 -58 -160 -65 -16 -6 -52 -21 -78 -33 -27
-12 -50 -22 -52 -22 -2 0 -57 -24 -122 -54 -65 -29 -140 -64 -168 -76 -66 -29
-429 -211 -525 -263 -395 -211 -729 -413 -1085 -655 -126 -86 -411 -290 -442
-317 -7 -5 -42 -32 -79 -60 -202 -152 -531 -427 -748 -625 -34 -31 -76 -69
-95 -85 -64 -56 -525 -519 -627 -630 -182 -197 -428 -487 -618 -725 -106 -133
-333 -446 -457 -630 -111 -164 -279 -427 -279 -436 0 -3 -11 -20 -24 -37 -13
-18 -33 -50 -45 -72 -12 -22 -27 -49 -34 -60 -146 -232 -449 -826 -610 -1195
-87 -200 -189 -455 -247 -615 -18 -49 -36 -99 -40 -110 -28 -66 -188 -565
-221 -690 -104 -392 -165 -642 -189 -770 -4 -22 -26 -137 -48 -255 -22 -118
-48 -267 -57 -330 -9 -63 -18 -126 -20 -140 -4 -28 -13 -95 -21 -155 -2 -22
-7 -58 -10 -80 -3 -22 -7 -56 -9 -75 -6 -62 -15 -154 -19 -190 -2 -19 -7 -71
-11 -115 -3 -44 -8 -107 -11 -140 -26 -318 -36 -947 -20 -1290 10 -225 16
-326 22 -390 6 -68 11 -118 19 -225 3 -41 8 -88 10 -105 2 -16 7 -55 10 -85 3
-30 7 -68 10 -85 2 -16 7 -52 10 -80 3 -27 8 -70 11 -95 2 -25 7 -54 9 -66 3
-12 7 -36 9 -55 3 -19 8 -52 11 -74 6 -45 52 -316 60 -355 13 -68 27 -138 32
-165 2 -16 18 -88 34 -160 16 -71 36 -159 44 -195 8 -36 22 -92 30 -125 8 -33
17 -68 20 -77 2 -10 18 -71 36 -135 17 -65 35 -131 39 -148 18 -68 166 -540
187 -595 3 -8 25 -69 48 -135 48 -134 161 -425 199 -513 216 -500 362 -798
586 -1197 38 -68 183 -313 212 -358 15 -23 32 -51 38 -62 29 -59 328 -503 437
-650 256 -344 486 -631 677 -845 23 -25 61 -68 85 -95 193 -220 663 -691 843
-847 13 -11 39 -34 58 -51 19 -18 69 -61 110 -97 41 -36 81 -70 88 -77 7 -7
34 -29 60 -50 26 -21 53 -44 61 -51 69 -66 493 -391 710 -545 121 -86 404
-275 529 -353 34 -21 84 -53 110 -69 59 -38 354 -210 447 -261 336 -183 703
-362 1005 -491 58 -24 119 -51 135 -58 65 -29 287 -115 410 -159 72 -26 141
-52 155 -58 155 -64 808 -260 1115 -334 158 -38 182 -44 205 -48 14 -3 77 -16
140 -31 122 -27 366 -73 535 -101 17 -3 41 -7 55 -9 14 -2 43 -7 65 -9 22 -3
51 -8 65 -11 14 -3 45 -7 70 -10 25 -3 56 -7 70 -10 14 -2 48 -6 75 -9 66 -8
134 -17 165 -21 37 -6 275 -29 420 -41 97 -8 135 -10 500 -29 116 -6 728 -7
855 -1 231 11 374 18 405 21 19 2 78 6 130 10 52 4 109 8 125 10 17 1 66 6
110 10 44 4 88 9 99 11 10 2 44 6 75 9 31 3 72 8 91 10 19 3 58 7 85 10 28 3
61 8 75 10 36 7 79 13 130 20 25 3 70 10 100 15 30 5 73 12 95 15 72 11 100
16 115 20 8 2 31 6 50 9 19 3 44 7 55 10 11 2 58 11 105 20 47 9 94 18 105 20
11 2 67 14 125 26 58 12 119 25 135 30 17 5 41 11 55 14 14 2 45 9 70 16 25 7
53 14 63 16 10 2 27 6 37 9 10 3 27 7 37 9 17 4 114 29 288 75 44 12 100 28
125 36 25 8 74 23 110 34 119 36 414 132 510 167 250 91 555 210 665 259 17 7
73 32 125 55 683 299 1367 686 1995 1129 133 93 472 345 485 360 4 5 70 58
223 181 11 8 24 20 31 25 6 6 56 48 111 95 55 47 118 101 139 120 21 19 44 40
50 45 269 240 694 664 906 904 36 41 72 81 81 90 81 84 388 461 552 678 296
394 621 888 812 1238 21 39 44 79 51 90 49 77 314 604 399 795 229 512 388
942 546 1475 17 55 32 107 34 115 2 8 21 83 43 165 40 149 56 214 87 350 9 39
18 77 20 85 7 29 66 316 70 345 3 17 12 64 20 105 8 41 17 93 20 115 3 22 8
51 10 65 10 59 27 167 31 195 2 17 6 44 8 60 3 17 8 57 12 90 3 33 8 68 9 77
2 9 7 48 10 85 4 37 9 76 10 85 2 9 7 52 10 95 4 43 9 92 11 108 2 17 6 71 9
120 4 50 8 110 10 135 27 319 27 1280 0 1545 -2 22 -7 78 -10 124 -3 47 -8 98
-10 115 -2 17 -7 63 -10 101 -3 39 -8 88 -10 110 -11 96 -46 382 -50 400 -7
44 -26 162 -39 250 -3 17 -7 39 -9 50 -3 11 -8 40 -12 65 -4 25 -9 56 -12 70
-16 97 -102 493 -143 660 -18 69 -33 132 -35 140 -40 169 -232 787 -292 940
-3 8 -7 20 -9 25 -4 17 -84 229 -94 250 -5 11 -33 79 -61 150 -172 432 -409
919 -657 1349 -41 72 -82 144 -92 161 -16 28 -90 148 -141 230 -110 174 -374
561 -484 710 -181 243 -568 719 -655 805 -3 3 -25 28 -49 55 -235 265 -671
697 -951 941 -25 21 -50 44 -56 49 -11 10 -96 84 -141 122 -12 10 -30 25 -40
33 -72 59 -129 106 -133 110 -9 10 -271 213 -370 287 -401 297 -826 574 -1220
795 -374 210 -783 412 -1141 563 -74 31 -148 63 -166 71 -145 65 -878 326
-978 348 -5 2 -44 13 -85 26 -41 12 -122 36 -180 52 -93 26 -116 32 -155 42
-5 1 -19 5 -30 9 -11 3 -31 8 -45 11 -14 3 -52 13 -85 22 -104 28 -403 95
-585 130 -14 3 -56 11 -95 19 -38 7 -90 16 -115 20 -25 3 -52 8 -60 10 -8 2
-33 6 -55 10 -22 3 -51 8 -65 10 -64 11 -168 27 -200 31 -19 2 -69 9 -110 14
-41 6 -91 13 -110 15 -19 3 -51 7 -70 10 -19 2 -62 7 -95 10 -33 3 -71 7 -85
10 -14 2 -65 7 -115 10 -49 4 -103 8 -120 10 -74 10 -248 20 -495 31 -146 6
-788 12 -793 8z m498 -8769 c77 -3 156 -8 175 -10 19 -2 69 -6 110 -10 41 -4
89 -8 105 -10 17 -2 58 -7 93 -10 35 -4 71 -8 80 -10 9 -1 42 -6 72 -10 30 -4
62 -9 70 -10 8 -1 35 -6 60 -10 25 -3 79 -13 120 -21 41 -9 98 -20 125 -24 81
-15 102 -19 255 -56 80 -20 152 -37 160 -39 56 -12 267 -77 444 -136 234 -79
392 -141 651 -257 92 -40 455 -225 502 -255 24 -15 45 -27 47 -27 20 0 472
-290 621 -399 110 -80 114 -83 199 -149 499 -389 940 -842 1329 -1364 175
-235 539 -819 510 -818 -4 0 -16 17 -25 38 -18 39 -153 271 -192 332 -162 248
-300 450 -307 450 -3 0 -41 -39 -85 -87 -153 -168 -232 -242 -444 -412 -58
-46 -107 -87 -110 -90 -3 -4 -68 -53 -145 -110 -665 -490 -1480 -910 -2275
-1171 -132 -44 -409 -125 -456 -134 -10 -2 -46 -11 -79 -20 -33 -10 -73 -19
-90 -22 -16 -3 -43 -9 -60 -14 -16 -5 -55 -14 -85 -19 -90 -18 -104 -21 -130
-26 -14 -3 -50 -10 -80 -15 -30 -6 -64 -12 -75 -14 -11 -2 -40 -7 -65 -11 -25
-4 -52 -9 -61 -10 -9 -2 -40 -6 -69 -10 -29 -4 -60 -8 -69 -10 -9 -1 -45 -6
-81 -10 -36 -3 -76 -8 -90 -10 -221 -32 -728 -49 -1011 -33 -140 7 -302 18
-339 23 -14 1 -56 6 -93 9 -37 4 -76 9 -86 11 -10 2 -42 6 -72 10 -82 9 -105
13 -136 19 -15 3 -46 8 -68 12 -76 10 -330 63 -475 98 -495 119 -1020 315
-1485 551 -177 91 -301 159 -370 203 -11 6 -30 16 -42 22 -12 5 -46 24 -75 43
-29 19 -80 51 -113 72 -463 293 -864 612 -1229 980 -197 200 -415 447 -550
627 l-27 36 53 58 c90 99 388 396 488 486 255 230 595 493 860 663 41 26 98
63 125 80 165 107 534 306 730 395 28 12 79 36 115 53 447 205 988 371 1575
483 22 4 42 8 45 9 8 2 101 16 140 21 19 3 47 7 62 10 15 3 42 7 60 9 18 1 58
6 88 9 30 4 71 9 90 11 19 2 69 7 110 10 41 4 89 8 105 11 17 2 109 6 205 10
96 3 176 7 177 8 4 4 357 -2 488 -9z m5765 -3679 c0 -6 -7 -2 -15 8 -8 11 -15
25 -15 30 0 6 7 2 15 -8 8 -11 15 -25 15 -30z m64 -123 c29 -60 75 -155 101
-213 26 -58 55 -124 66 -147 10 -24 19 -45 19 -48 0 -2 12 -30 26 -62 15 -31
35 -80 45 -108 10 -27 32 -88 49 -135 63 -171 135 -395 175 -545 47 -177 93
-365 110 -455 45 -232 75 -426 91 -585 3 -27 7 -56 9 -62 3 -7 0 -13 -5 -13
-6 0 -11 12 -11 28 -2 40 -6 78 -18 167 -7 44 -14 98 -17 120 -3 22 -7 47 -9
55 -2 8 -7 35 -10 60 -3 25 -8 52 -10 60 -2 8 -7 29 -9 46 -5 26 -18 94 -42
214 -65 327 -223 825 -379 1200 -64 154 -68 162 -167 365 -40 83 -74 153 -76
158 -2 4 -1 7 2 7 3 0 30 -48 60 -107z m697 -2415 c0 -18 2 -44 4 -58 2 -14 6
-68 10 -120 3 -52 7 -114 9 -137 1 -24 -1 -43 -4 -43 -4 0 -8 24 -9 53 -1 28
-4 68 -6 87 -1 19 -6 80 -10 135 -4 55 -9 103 -12 108 -2 4 1 7 6 7 6 0 11
-15 12 -32z m30 -480 c2 -313 -1 -498 -10 -498 -3 0 -6 137 -6 305 0 168 3
305 8 305 4 0 7 -51 8 -112z m-7 -551 c-5 -132 -40 -498 -59 -617 -2 -14 -7
-45 -10 -70 -10 -73 -15 -101 -30 -180 -8 -41 -17 -91 -20 -110 -3 -19 -8 -42
-10 -50 -2 -8 -6 -26 -9 -40 -50 -271 -237 -897 -326 -1095 -5 -11 -30 -72
-56 -135 -162 -400 -406 -850 -672 -1240 -131 -192 -341 -468 -410 -540 -19
-19 5 14 54 75 107 134 259 338 345 465 79 115 209 319 209 328 0 3 6 13 14
21 7 9 31 48 51 86 21 39 49 87 61 107 44 70 294 576 294 594 0 3 14 35 30 71
17 35 30 69 30 74 0 5 4 17 10 27 15 27 95 241 150 402 14 41 78 251 91 300 7
25 14 50 15 55 51 185 115 470 139 615 3 19 7 46 10 60 3 14 7 39 9 55 2 17 7
50 11 75 4 25 9 59 11 75 2 17 6 41 9 55 2 14 7 54 10 89 4 35 8 75 10 90 1
14 6 67 10 116 4 50 8 106 10 125 2 19 4 63 4 98 1 34 5 62 9 62 4 0 7 -19 6
-43z m-1665 -4154 c-18 -21 -35 -40 -36 -42 -2 -2 -5 -2 -7 0 -6 5 62 79 72
79 3 0 -10 -17 -29 -37z m-70 -80 c-99 -110 -340 -359 -303 -314 10 13 39 45
64 70 25 26 92 97 149 159 58 61 107 112 110 112 2 0 -6 -12 -20 -27z m-338
-351 c-5 -10 -18 -25 -27 -33 -11 -9 -9 -2 6 19 26 35 36 42 21 14z m-52 -54
c-3 -2 -34 -30 -69 -63 l-65 -60 60 63 c33 34 64 62 69 62 5 0 7 -1 5 -2z
m-160 -144 c-13 -14 -51 -49 -84 -76 -45 -38 -40 -32 20 25 80 76 109 99 64
51z m-149 -128 c0 -2 -26 -25 -57 -51 l-58 -47 55 51 c54 50 60 55 60 47z
m-120 -99 c0 -2 -10 -12 -22 -23 l-23 -19 19 23 c18 21 26 27 26 19z m-50 -41
c0 -2 -8 -10 -17 -17 -16 -13 -17 -12 -4 4 13 16 21 21 21 13z m-40 -29 c0 -2
-12 -14 -27 -28 l-28 -24 24 28 c23 25 31 32 31 24z m-60 -51 c0 -2 -8 -10
-17 -17 -16 -13 -17 -12 -4 4 13 16 21 21 21 13z m-70 -49 c0 -2 -10 -12 -22
-23 l-23 -19 19 23 c18 21 26 27 26 19z m-50 -41 c0 -2 -8 -10 -17 -17 -16
-13 -17 -12 -4 4 13 16 21 21 21 13z m-70 -50 c0 -3 -15 -14 -32 -26 l-33 -22
30 26 c31 27 35 29 35 22z m-190 -130 c0 -2 -8 -10 -17 -17 -16 -13 -17 -12
-4 4 13 16 21 21 21 13z"/>
</g>
</svg>
